<svg width="461" height="512" viewBox="0 0 461 512" fill="none" xmlns="http://www.w3.org/2000/svg">
<path fill-rule="evenodd" clip-rule="evenodd" d="M460.997 353.745C460.997 373.21 446.618 397.752 429.7 407.907L261.373 504.383C244.455 514.539 216.542 514.539 199.625 504.383L31.2971 407.061C14.3797 396.906 0 373.21 0 352.899V158.255C0 138.79 14.3797 114.248 31.2971 104.093L199.625 7.61653C216.542 -2.53884 244.455 -2.53884 261.373 7.61653L429.7 104.939C446.618 115.094 460.997 138.79 460.997 159.101V353.745ZM222.463 91.3983V148.945L191.166 136.251L230.922 232.727L269.831 136.251L238.534 148.945V91.3983H222.463ZM214.004 82.9355H222.463H238.534H246.993V91.3983V136.251L266.448 128.635L285.903 121.018L278.29 140.483L238.534 236.112L230.076 255.577L222.463 236.112L183.553 139.636L175.94 120.172L195.395 127.788L214.85 135.405V90.5521L214.004 82.9355ZM230.922 277.58L192.012 374.056L223.309 361.362V418.909H239.38V361.362L270.677 374.056L230.922 277.58ZM230.922 254.731L239.38 274.195L278.29 370.671L285.903 390.136L266.448 382.519L246.993 374.902V419.755V428.218H238.534H222.463H214.004V419.755V374.902L194.549 382.519L175.094 390.136L182.707 370.671L222.463 274.195L230.922 254.731ZM313.816 161.64L250.376 243.729L353.572 229.342L327.35 208.185L377.256 179.412L369.644 165.871L319.738 194.645L313.816 161.64ZM318.892 140.483L321.429 160.793L324.813 181.95L363.723 159.947L371.335 155.716L375.565 163.332L383.178 176.873L387.407 184.489L379.794 188.721L340.884 210.724L356.956 223.418L374.719 236.112L354.418 238.651L251.222 253.038L230.076 255.577L242.764 238.651L306.204 156.562L318.892 140.483ZM211.467 266.578L108.271 280.965L134.493 302.122L84.5867 330.896L92.1995 344.436L142.106 315.663L147.181 349.514L211.467 266.578ZM230.922 254.731L218.234 271.656L154.794 353.745L142.106 369.825L139.568 349.514L136.185 329.203L97.2747 351.207L89.6619 355.438L85.4325 347.821L77.8197 334.281L73.5904 326.664L81.2032 322.433L120.113 300.43L103.196 286.889L87.1243 274.195L107.425 271.656L210.621 257.269L230.922 254.731ZM249.531 266.578L312.971 348.668L318.046 314.817L367.952 343.59L375.565 330.05L325.659 301.276L351.88 280.119L249.531 266.578ZM230.076 254.731L251.222 257.269L354.418 271.656L374.719 274.195L357.802 286.889L341.73 299.583L380.64 321.587L388.253 325.818L383.178 334.281L375.565 347.821L371.335 355.438L363.723 351.207L324.813 329.203L321.429 350.36L318.892 370.671L306.204 354.592L242.764 272.502L230.076 254.731ZM148.027 161.64L142.951 195.491L93.0453 166.717L85.4325 180.258L135.339 209.031L109.117 230.188L212.312 244.575L148.027 161.64ZM142.106 140.483L154.794 156.562L218.234 238.651L230.922 255.577L209.775 253.038L106.579 238.651L87.1243 236.112L103.196 223.418L119.267 210.724L80.3573 188.721L72.7445 184.489L76.9739 176.873L84.5867 163.332L88.816 155.716L96.4288 159.947L135.339 181.95L138.722 160.793L142.106 140.483Z" fill="#084E8A"/>
</svg>
